<svg width="339" height="352" viewBox="0 0 339 352" fill="none" xmlns="http://www.w3.org/2000/svg">
<path d="M202.094 288.287H135.2V295.073H202.094V288.287Z" fill="#ABDEA4"/>
<path d="M228.806 273.146H105.753V280.287H228.806V273.146Z" fill="#ABDEA4"/>
<path d="M174.116 148.624L254.455 228.533C260.202 207.037 261.266 187.085 243.618 170.475C232.908 160.373 220.299 153.866 206.297 149.89C199.056 147.84 191.662 146.422 184.37 144.497H288.18C280.205 121.533 257.214 107.936 233.161 111.101C215.058 113.481 196.524 121.127 181.914 131.635C205.461 108.544 230.047 83.8319 254.505 59.8543C249.492 58.7656 245.694 57.8287 241.871 57.1198C221.008 53.2712 200.144 59.196 188.042 77.1728C181.459 86.9462 179.636 92.5924 176.471 103.632C173.913 112.544 171.255 124.394 170.09 129.888C166.419 118.317 163.254 101.758 157.582 89.4528C149.024 70.8683 137.225 57.5756 114.564 56.2083C104.158 55.5753 93.9291 57.0945 84.1558 60.7405C108.108 84.2117 133.377 107.911 157.329 131.382C142.137 121.583 125.199 113.456 107.07 111.076C83.0417 107.911 59.6718 121.76 52 144.801H102.234C119.071 144.801 140.39 144.573 157.228 144.573L147.125 146.675C128.414 150.22 111.324 157.031 96.8915 170.095C81.0921 184.401 78.3323 206.454 86.7383 229.166C113.197 202.454 139.276 176.121 166.166 149.004V229.014C150.29 230.71 137.453 242.585 134.339 257.979H86.7383V265.271H254.885V257.979H205.816C202.702 242.61 189.915 230.761 174.091 229.014V148.574L174.116 148.624Z" fill="#ABDEA4"/>
<path d="M105.753 273.147V280.262C108.614 280.262 110.944 280.262 113.299 280.262C146.34 280.262 195.764 280.262 228.806 280.262V273.122C190.396 273.122 151.987 273.122 113.577 273.122H105.753V273.147Z" fill="#ABDEA4"/>
<path d="M135.2 295.123C157.987 295.123 180.041 295.174 202.094 295.073L202.17 288.287H135.2V295.098V295.123Z" fill="#ABDEA4"/>
</svg>
