<svg width="496" height="119" viewBox="0 0 496 119" fill="none" xmlns="http://www.w3.org/2000/svg">
<path d="M83.6277 103.638H58.3898V106.198H83.6277V103.638Z" fill="#ABDEA4"/>
<path d="M93.7057 97.9248H47.2802V100.619H93.7057V97.9248Z" fill="#ABDEA4"/>
<path d="M73.0721 50.9455L103.382 81.0934C105.551 72.9833 105.952 65.4558 99.2939 59.1894C95.2532 55.3779 90.496 52.9229 85.2134 51.4231C82.4814 50.6494 79.692 50.1144 76.9409 49.3884H116.106C113.097 40.7242 104.424 35.5945 95.3487 36.7886C88.5186 37.6865 81.5261 40.5714 76.0143 44.5357C84.8982 35.8238 94.1737 26.5004 103.402 17.4542C101.51 17.0434 100.077 16.69 98.6348 16.4225C90.7634 14.9705 82.8921 17.2058 78.326 23.9881C75.8423 27.6754 75.1545 29.8056 73.9605 33.9706C72.9957 37.3331 71.9926 41.8037 71.5532 43.8766C70.1681 39.5111 68.974 33.2637 66.8342 28.6211C63.6055 21.6095 59.154 16.5944 50.6044 16.0786C46.6783 15.8398 42.8191 16.4129 39.1318 17.7885C48.1685 26.6437 57.702 35.5849 66.7387 44.4402C61.0072 40.7433 54.6165 37.677 47.7769 36.779C38.7115 35.5849 29.8944 40.8102 27 49.5031H45.9523C52.3048 49.5031 60.348 49.4171 66.7005 49.4171L62.889 50.2099C55.8297 51.5473 49.3817 54.1169 43.9367 59.0461C37.9759 64.4433 36.9347 72.7636 40.1061 81.3322C50.0886 71.2543 59.9277 61.3196 70.0726 51.0888V81.2749C64.0831 81.9149 59.2399 86.3951 58.065 92.2031H40.1061V94.9542H103.545V92.2031H85.0319C83.8569 86.4046 79.0329 81.934 73.0625 81.2749V50.9264L73.0721 50.9455Z" fill="#ABDEA4"/>
<path d="M47.2802 97.9256V100.61C48.3596 100.61 49.2384 100.61 50.1268 100.61C62.5929 100.61 81.2396 100.61 93.7057 100.61V97.916C79.2144 97.916 64.7232 97.916 50.2319 97.916H47.2802V97.9256Z" fill="#ABDEA4"/>
<path d="M58.3898 106.217C66.9871 106.217 75.3074 106.236 83.6277 106.198L83.6563 103.638H58.3898V106.207V106.217Z" fill="#ABDEA4"/>
<path d="M441.192 97.2809C435.368 97.2809 430.945 95.5169 427.921 91.989C424.897 88.4051 423.385 83.3931 423.385 76.9533V42.5979C423.385 36.382 424.897 31.7061 427.921 28.5701C430.945 25.3782 435.368 23.7822 441.192 23.7822C447.016 23.7822 451.44 25.3782 454.464 28.5701C457.488 31.7061 459 36.382 459 42.5979V76.9533C459 83.4491 457.488 88.4611 454.464 91.989C451.44 95.5169 447.016 97.2809 441.192 97.2809ZM441.192 84.0091C442.48 84.0091 443.348 83.4491 443.796 82.3292C444.244 81.2092 444.468 79.6412 444.468 77.6253V42.3459C444.468 40.7779 444.244 39.5179 443.796 38.566C443.404 37.558 442.564 37.054 441.276 37.054C438.868 37.054 437.664 38.874 437.664 42.5139V77.7092C437.664 79.7812 437.916 81.3492 438.42 82.4132C438.924 83.4771 439.848 84.0091 441.192 84.0091Z" fill="#ABDEA4"/>
<path d="M384.632 96.6088L391.604 24.4541H416.047L422.935 96.6088H409.244L408.236 84.933H399.5L398.66 96.6088H384.632ZM400.592 73.4252H407.144L403.952 36.7179H403.28L400.592 73.4252Z" fill="#ABDEA4"/>
<path d="M348.499 24.4541H368.407C373.558 24.4541 377.422 25.8821 379.998 28.738C382.574 31.594 383.89 35.8219 383.946 41.4218L384.114 75.1892C384.17 82.3011 382.938 87.649 380.418 91.2329C377.898 94.8168 373.726 96.6088 367.903 96.6088H348.499V24.4541ZM365.551 83.841C368.183 83.841 369.498 82.553 369.498 79.9771V42.7658C369.498 41.1418 369.358 39.9378 369.078 39.1538C368.854 38.3138 368.406 37.7539 367.735 37.4739C367.063 37.1939 366.027 37.0539 364.627 37.0539H363.031V83.841H365.551Z" fill="#ABDEA4"/>
<path d="M299.568 24.4541H319.476C324.628 24.4541 328.492 25.8821 331.068 28.738C333.644 31.594 334.96 35.8219 335.016 41.4218L335.184 75.1892C335.24 82.3011 334.008 87.649 331.488 91.2329C328.968 94.8168 324.796 96.6088 318.972 96.6088H299.568V24.4541ZM316.62 83.841C319.252 83.841 320.568 82.553 320.568 79.9771V42.7658C320.568 41.1418 320.428 39.9378 320.148 39.1538C319.924 38.3138 319.476 37.7539 318.804 37.4739C318.132 37.1939 317.096 37.0539 315.696 37.0539H314.1V83.841H316.62Z" fill="#ABDEA4"/>
<path d="M261.093 96.6088V24.4541H275.961L282.597 58.9775V24.4541H296.541V96.6088H282.429L275.205 60.4894V96.6088H261.093Z" fill="#ABDEA4"/>
<path d="M220.066 96.6078L227.038 24.4531H251.482L258.37 96.6078H244.678L243.67 84.932H234.934L234.094 96.6078H220.066ZM236.026 73.4242H242.578L239.386 36.7169H238.714L236.026 73.4242Z" fill="#ABDEA4"/>
<path d="M191.972 96.6078V24.4531H206.42V84.344H221.288V96.6078H191.972Z" fill="#ABDEA4"/>
<path d="M172.994 97.2809C166.443 97.2809 161.711 95.6569 158.799 92.409C155.887 89.161 154.431 83.9251 154.431 76.7013V69.6454H168.626V78.6332C168.626 82.2172 169.774 84.0091 172.07 84.0091C173.358 84.0091 174.254 83.6451 174.758 82.9172C175.262 82.1332 175.514 80.8452 175.514 79.0532C175.514 76.7013 175.234 74.7693 174.674 73.2573C174.114 71.6894 173.386 70.4014 172.49 69.3934C171.65 68.3294 170.11 66.7054 167.87 64.5215L161.655 58.3056C156.839 53.6017 154.431 48.3938 154.431 42.6819C154.431 36.522 155.831 31.8461 158.631 28.6541C161.487 25.4062 165.631 23.7822 171.062 23.7822C177.558 23.7822 182.234 25.5182 185.09 28.9901C187.946 32.4061 189.374 37.782 189.374 45.1178H174.674L174.59 40.1619C174.59 39.2099 174.31 38.454 173.75 37.894C173.246 37.334 172.518 37.054 171.566 37.054C170.446 37.054 169.606 37.362 169.046 37.978C168.486 38.594 168.206 39.4339 168.206 40.4979C168.206 42.8499 169.55 45.2858 172.238 47.8058L180.638 55.8696C182.598 57.7736 184.222 59.5936 185.51 61.3295C186.798 63.0095 187.834 65.0255 188.618 67.3774C189.402 69.6734 189.794 72.4173 189.794 75.6093C189.794 82.7212 188.478 88.1251 185.846 91.821C183.27 95.4609 178.986 97.2809 172.994 97.2809Z" fill="#ABDEA4"/>
<path d="M137.25 96.6088V24.4541H151.194V96.6088H137.25Z" fill="#ABDEA4"/>
</svg>
