<svg width="496" height="119" viewBox="0 0 496 119" fill="none" xmlns="http://www.w3.org/2000/svg">
<path d="M89.3655 102.231H64.2444V104.78H89.3655V102.231Z" fill="#041A10"/>
<path d="M99.3969 96.5459H53.1863V99.2272H99.3969V96.5459Z" fill="#041A10"/>
<path d="M78.8588 49.7837L109.029 79.7921C111.187 71.7195 111.587 64.2269 104.959 57.9894C100.937 54.1956 96.202 51.7519 90.9439 50.2591C88.2245 49.4889 85.4481 48.9565 82.7097 48.2338H121.694C118.699 39.6098 110.065 34.5038 101.032 35.6923C94.2338 36.5861 87.2737 39.4576 81.7873 43.4036C90.6301 34.732 99.8627 25.4518 109.048 16.4474C107.165 16.0386 105.739 15.6868 104.303 15.4205C96.4682 13.9753 88.6334 16.2002 84.0884 22.9511C81.6162 26.6214 80.9316 28.7417 79.7431 32.8874C78.7827 36.2343 77.7843 40.6842 77.347 42.7475C75.9682 38.4022 74.7797 32.1837 72.6498 27.5627C69.436 20.5836 65.0051 15.5917 56.4951 15.0782C52.5872 14.8405 48.7458 15.411 45.0756 16.7802C54.0705 25.5945 63.5598 34.4943 72.5547 43.3085C66.8497 39.6288 60.4886 36.5766 53.6807 35.6828C44.6572 34.4943 35.881 39.6953 33 48.3479H51.8646C58.1876 48.3479 66.1937 48.2624 72.5167 48.2624L68.7229 49.0516C61.6962 50.3827 55.2781 52.9405 49.8583 57.8468C43.9251 63.219 42.8887 71.5008 46.0455 80.0298C55.9817 69.9985 65.7753 60.1098 75.8732 49.9263V79.9727C69.9114 80.6098 65.0907 85.0692 63.9212 90.8503H46.0455V93.5887H109.19V90.8503H90.7632C89.5937 85.0787 84.792 80.6288 78.8493 79.9727V49.7647L78.8588 49.7837Z" fill="#041A10"/>
<path d="M53.1863 96.5456V99.2175C54.2608 99.2175 55.1355 99.2175 56.0198 99.2175C68.4282 99.2175 86.9885 99.2175 99.3969 99.2175V96.5361C84.9727 96.5361 70.5486 96.5361 56.1244 96.5361H53.1863V96.5456Z" fill="#041A10"/>
<path d="M64.2444 104.799C72.802 104.799 81.0837 104.818 89.3655 104.78L89.394 102.231H64.2444V104.789V104.799Z" fill="#041A10"/>
<path d="M445.275 95.9045C439.478 95.9045 435.074 94.1487 432.064 90.6371C429.055 87.0697 427.55 82.081 427.55 75.671V41.4746C427.55 35.2875 429.055 30.6333 432.064 27.5118C435.074 24.3347 439.478 22.7461 445.275 22.7461C451.072 22.7461 455.475 24.3347 458.485 27.5118C461.495 30.6333 463 35.2875 463 41.4746V75.671C463 82.1368 461.495 87.1255 458.485 90.6371C455.475 94.1487 451.072 95.9045 445.275 95.9045ZM445.275 82.6942C446.557 82.6942 447.421 82.1368 447.867 81.022C448.313 79.9072 448.536 78.3465 448.536 76.3398V41.2238C448.536 39.6631 448.313 38.409 447.867 37.4614C447.476 36.4581 446.64 35.9564 445.358 35.9564C442.962 35.9564 441.763 37.7679 441.763 41.391V76.4235C441.763 78.4858 442.014 80.0465 442.516 81.1056C443.017 82.1646 443.937 82.6942 445.275 82.6942Z" fill="#041A10"/>
<path d="M388.976 95.2357L395.916 23.415H420.246L427.102 95.2357H413.474L412.471 83.6139H403.775L402.939 95.2357H388.976ZM404.862 72.1594H411.384L408.206 35.622H407.538L404.862 72.1594Z" fill="#041A10"/>
<path d="M353.01 23.415H372.826C377.954 23.415 381.8 24.8364 384.364 27.6791C386.928 30.5219 388.238 34.7302 388.294 40.3042L388.461 73.9152C388.517 80.9942 387.29 86.3173 384.782 89.8847C382.274 93.452 378.121 95.2357 372.324 95.2357H353.01V23.415ZM369.983 82.527C372.603 82.527 373.913 81.245 373.913 78.681V41.6419C373.913 40.0255 373.773 38.8271 373.495 38.0467C373.272 37.2106 372.826 36.6532 372.157 36.3745C371.488 36.0958 370.457 35.9565 369.063 35.9565H367.475V82.527H369.983Z" fill="#041A10"/>
<path d="M304.306 23.415H324.122C329.25 23.415 333.096 24.8364 335.66 27.6791C338.224 30.5219 339.534 34.7302 339.59 40.3042L339.757 73.9152C339.812 80.9942 338.586 86.3173 336.078 89.8847C333.57 93.452 329.417 95.2357 323.62 95.2357H304.306V23.415ZM321.279 82.527C323.899 82.527 325.209 81.245 325.209 78.681V41.6419C325.209 40.0255 325.069 38.8271 324.791 38.0467C324.568 37.2106 324.122 36.6532 323.453 36.3745C322.784 36.0958 321.753 35.9565 320.359 35.9565H318.771V82.527H321.279Z" fill="#041A10"/>
<path d="M266.009 95.2357V23.415H280.808L287.413 57.7786V23.415H301.293V95.2357H287.246L280.056 59.2836V95.2357H266.009Z" fill="#041A10"/>
<path d="M225.172 95.2347L232.112 23.4141H256.442L263.298 95.2347H249.67L248.667 83.613H239.971L239.135 95.2347H225.172ZM241.058 72.1585H247.58L244.403 35.6211H243.734L241.058 72.1585Z" fill="#041A10"/>
<path d="M197.208 95.2347V23.4141H211.589V83.0277H226.388V95.2347H197.208Z" fill="#041A10"/>
<path d="M178.318 95.9045C171.797 95.9045 167.087 94.288 164.188 91.0551C161.29 87.8222 159.841 82.6106 159.841 75.4201V68.3969H173.971V77.3432C173.971 80.9105 175.113 82.6942 177.399 82.6942C178.681 82.6942 179.573 82.3319 180.074 81.6073C180.576 80.8269 180.827 79.5449 180.827 77.7612C180.827 75.4201 180.548 73.4971 179.991 71.9921C179.433 70.4314 178.709 69.1494 177.817 68.1461C176.981 67.087 175.448 65.4706 173.218 63.2967L167.031 57.1096C162.237 52.4275 159.841 47.2437 159.841 41.5583C159.841 35.4269 161.234 30.7726 164.021 27.5955C166.864 24.3625 170.989 22.7461 176.395 22.7461C182.861 22.7461 187.515 24.474 190.358 27.9299C193.201 31.33 194.622 36.681 194.622 43.9829H179.991L179.907 39.05C179.907 38.1024 179.628 37.3499 179.071 36.7925C178.569 36.2351 177.845 35.9564 176.897 35.9564C175.782 35.9564 174.946 36.263 174.389 36.8761C173.831 37.4893 173.553 38.3253 173.553 39.3844C173.553 41.7255 174.89 44.1501 177.566 46.6584L185.927 54.685C187.878 56.5801 189.494 58.3917 190.776 60.1196C192.058 61.7918 193.089 63.7984 193.87 66.1395C194.65 68.4248 195.04 71.156 195.04 74.3332C195.04 81.4122 193.73 86.791 191.111 90.4699C188.547 94.0929 184.283 95.9045 178.318 95.9045Z" fill="#041A10"/>
<path d="M142.74 95.2357V23.415H156.619V95.2357H142.74Z" fill="#041A10"/>
</svg>
